/* XPM */
static char * nid_xpm[] = {
"80 80 356 2",
"  	c None",
". 	c #C46600",
"+ 	c #C76F1A",
"@ 	c #D0863A",
"# 	c #D38C40",
"$ 	c #C86D01",
"% 	c #D38006",
"& 	c #DC8E09",
"* 	c #E4990D",
"= 	c #E79D0D",
"- 	c #E99F0E",
"; 	c #E89F0E",
"> 	c #E2960C",
", 	c #DE9118",
"' 	c #DB983E",
") 	c #D48E40",
"! 	c #CB7303",
"~ 	c #F2AB11",
"{ 	c #FBB714",
"] 	c #FBBB27",
"^ 	c #FCC94F",
"/ 	c #F2BC4B",
"( 	c #E6AA47",
"_ 	c #D79241",
": 	c #C76C01",
"< 	c #E59A0D",
"[ 	c #FBBA22",
"} 	c #FBBC2B",
"| 	c #FCBE30",
"1 	c #FCBF33",
"2 	c #FCC137",
"3 	c #FCBF32",
"4 	c #FBBC29",
"5 	c #FBB91E",
"6 	c #FCC343",
"7 	c #FBC74E",
"8 	c #E7AC47",
"9 	c #FBBD2C",
"0 	c #FCC23A",
"a 	c #FCC33C",
"b 	c #FCC74C",
"c 	c #FCCC5A",
"d 	c #F1AA11",
"e 	c #FCC239",
"f 	c #FCC543",
"g 	c #FDD066",
"h 	c #EDB449",
"i 	c #F9B513",
"j 	c #FBB81A",
"k 	c #FCBD2D",
"l 	c #FCC035",
"m 	c #FCC33B",
"n 	c #FCC034",
"o 	c #FBBC2A",
"p 	c #FCC950",
"q 	c #F8C34E",
"r 	c #D99742",
"s 	c #C96F02",
"t 	c #CE7804",
"u 	c #E9A00E",
"v 	c #FBB920",
"w 	c #FBBB26",
"x 	c #FBBB24",
"y 	c #FBB91C",
"z 	c #FCC648",
"A 	c #EBB149",
"B 	c #DA9843",
"C 	c #E5A846",
"D 	c #FBB614",
"E 	c #EBA30F",
"F 	c #D88707",
"G 	c #CD7703",
"H 	c #D98908",
"I 	c #E79D0E",
"J 	c #F1AB11",
"K 	c #FAB614",
"L 	c #F8B313",
"M 	c #F0A810",
"N 	c #DE9A3A",
"O 	c #F2BC4C",
"P 	c #DE9D44",
"Q 	c #C97002",
"R 	c #F3AC11",
"S 	c #DE910A",
"T 	c #DC8D09",
"U 	c #D27E05",
"V 	c #D17C05",
"W 	c #D48106",
"X 	c #D17D05",
"Y 	c #DA8A08",
"Z 	c #E0940B",
"` 	c #F4AE12",
" .	c #FCC649",
"..	c #F7C24D",
"+.	c #FBB819",
"@.	c #FCC74A",
"#.	c #FCBF31",
"$.	c #FBBD2D",
"%.	c #FBB91F",
"&.	c #FBBB25",
"*.	c #F6C14D",
"=.	c #DB8C09",
"-.	c #FCBE2F",
";.	c #CF7904",
">.	c #D58306",
",.	c #FCBD2E",
"'.	c #F4BE4C",
").	c #D48E41",
"!.	c #E1A345",
"~.	c #E4A746",
"{.	c #D89442",
"].	c #F3AD12",
"^.	c #DE900A",
"/.	c #C66A01",
"(.	c #FBB715",
"_.	c #FBBD2B",
":.	c #EEA717",
"<.	c #E1A245",
"[.	c #D89542",
"}.	c #E9AF48",
"|.	c #F9C54E",
"1.	c #F8C34D",
"2.	c #D99642",
"3.	c #D07A04",
"4.	c #EFA810",
"5.	c #E1940B",
"6.	c #EAA10F",
"7.	c #CE7704",
"8.	c #D68408",
"9.	c #E7A22D",
"0.	c #F6C04B",
"a.	c #D58F41",
"b.	c #E69B0D",
"c.	c #DD8E09",
"d.	c #E59B0D",
"e.	c #DD8F0A",
"f.	c #EDA510",
"g.	c #F5B012",
"h.	c #FBB922",
"i.	c #FCC74B",
"j.	c #E5A947",
"k.	c #FBB716",
"l.	c #FBBE33",
"m.	c #FCCA51",
"n.	c #FCC136",
"o.	c #FBBC28",
"p.	c #FBB81B",
"q.	c #FDCE62",
"r.	c #FCCC59",
"s.	c #E8AD48",
"t.	c #FCC953",
"u.	c #FCCB56",
"v.	c #FBBA24",
"w.	c #FBBD2F",
"x.	c #F7B113",
"y.	c #FBB81C",
"z.	c #FBBC2E",
"A.	c #DB9943",
"B.	c #C76B01",
"C.	c #E79C0D",
"D.	c #FAB514",
"E.	c #E3980C",
"F.	c #F7B313",
"G.	c #FCBE2E",
"H.	c #FBBA23",
"I.	c #FBBF37",
"J.	c #F8C44E",
"K.	c #DE9E44",
"L.	c #F1BA4B",
"M.	c #CB7202",
"N.	c #DF9C3A",
"O.	c #D99542",
"P.	c #E4990C",
"Q.	c #E3970C",
"R.	c #D68407",
"S.	c #F9B413",
"T.	c #CC7503",
"U.	c #E79E1C",
"V.	c #F6BB3D",
"W.	c #CA7002",
"X.	c #F5AF12",
"Y.	c #E4980C",
"Z.	c #E0930B",
"`.	c #DF920A",
" +	c #F6B012",
".+	c #FBBB28",
"++	c #D38D40",
"@+	c #FCC546",
"#+	c #DC9B43",
"$+	c #FCBE31",
"%+	c #FCC23C",
"&+	c #FDCF63",
"*+	c #FDCE60",
"=+	c #CC7403",
"-+	c #FCC952",
";+	c #FDD16B",
">+	c #FCCB59",
",+	c #FCC341",
"'+	c #F3BD4C",
")+	c #EFA710",
"!+	c #FCC23F",
"~+	c #EFB74A",
"{+	c #E0920B",
"]+	c #FCC238",
"^+	c #FCC240",
"/+	c #E3A546",
"(+	c #C66901",
"_+	c #E5990D",
":+	c #EAA10E",
"<+	c #FCC138",
"[+	c #F7B213",
"}+	c #E6A841",
"|+	c #FAC74E",
"1+	c #F2AC11",
"2+	c #FBBA21",
"3+	c #D9953F",
"4+	c #E1950B",
"5+	c #EAA00E",
"6+	c #FBB921",
"7+	c #FCC84D",
"8+	c #D98808",
"9+	c #E2950B",
"0+	c #FBBD30",
"a+	c #FAC64E",
"b+	c #D69041",
"c+	c #F0A911",
"d+	c #E69C0D",
"e+	c #E89E0E",
"f+	c #F6B112",
"g+	c #FCCB58",
"h+	c #E3A646",
"i+	c #FCC850",
"j+	c #FDD26D",
"k+	c #FBBA20",
"l+	c #FBB818",
"m+	c #FCC43F",
"n+	c #EBB249",
"o+	c #FDCF65",
"p+	c #D48D40",
"q+	c #FDCF64",
"r+	c #FCC23B",
"s+	c #FCC03A",
"t+	c #EFB64A",
"u+	c #F3AD11",
"v+	c #FCC84C",
"w+	c #F0B84B",
"x+	c #D78607",
"y+	c #FABD38",
"z+	c #DFA045",
"A+	c #DD9C44",
"B+	c #DA8C1A",
"C+	c #D58E3F",
"D+	c #F0B84A",
"E+	c #C46700",
"F+	c #EEA710",
"G+	c #EDA40F",
"H+	c #CE8134",
"I+	c #EEB64A",
"J+	c #D58406",
"K+	c #F4B431",
"L+	c #F2BB4B",
"M+	c #D37F06",
"N+	c #D18708",
"O+	c #CD7603",
"P+	c #F5BF4C",
"Q+	c #DF910A",
"R+	c #9D5100",
"S+	c #6D3800",
"T+	c #492600",
"U+	c #4D2800",
"V+	c #7D4000",
"W+	c #B45D00",
"X+	c #C96E02",
"Y+	c #D27D05",
"Z+	c #FCC13B",
"`+	c #F1B94B",
" @	c #C16400",
".@	c #773D00",
"+@	c #A15300",
"@@	c #EEA610",
"#@	c #F9B514",
"$@	c #FCCA53",
"%@	c #CF7A04",
"&@	c #814300",
"*@	c #A95800",
"=@	c #FBB817",
"-@	c #E5A026",
";@	c #B05B00",
">@	c #6A3700",
",@	c #F8B92F",
"'@	c #FCCD5E",
")@	c #CC7711",
"!@	c #904A00",
"~@	c #E39F2A",
"{@	c #FCC547",
"]@	c #F7BB38",
"^@	c #713A00",
"/@	c #D4861C",
"(@	c #D48206",
"_@	c #F2B535",
":@	c #D18018",
"<@	c #FCC84E",
"[@	c #EDA610",
"}@	c #FBB717",
"|@	c #F9BF3A",
"1@	c #663500",
"2@	c #D88C20",
"3@	c #F2B130",
"4@	c #CF7804",
"5@	c #D4820D",
"6@	c #804200",
"7@	c #E7A01C",
"8@	c #D98A08",
"9@	c #CF7F28",
"0@	c #CC7303",
"a@	c #D37F05",
"b@	c #E79F22",
"c@	c #F9C44C",
"d@	c #D07C05",
"e@	c #643300",
"f@	c #7C4000",
"g@	c #B15C00",
"h@	c #E6AB47",
"i@	c #BF6300",
"j@	c #B45E00",
"k@	c #FBB81D",
"l@	c #F3BC4C",
"m@	c #DC9A43",
"n@	c #FBB91D",
"o@	c #FAB720",
"p@	c #EEB548",
"q@	c #F1BB4B",
"r@	c #E1A03F",
"s@	c #ECB349",
"t@	c #C66B01",
"u@	c #DB8B09",
"v@	c #CA7102",
"w@	c #EDA50F",
"x@	c #F9BC38",
"y@	c #E49D2E",
"z@	c #ECA40F",
"A@	c #ECA30F",
"B@	c #D68928",
"C@	c #D28A3B",
"D@	c #F4B019",
"E@	c #E3A23E",
"F@	c #DE8F0A",
"G@	c #D28A3D",
"H@	c #E79F17",
"I@	c #EEA920",
"J@	c #F2B028",
"K@	c #F4B228",
"L@	c #F3B128",
"M@	c #F2AF25",
"N@	c #EDA71D",
"O@	c #C56901",
"                                                                    . . . . . . . . . + @ #                                                                     ",
"                                                              . . $ % & * = = - ; = = > , ' ) # #                                                               ",
"                                                          . ! > ~ { { { { { { { { { { { { ] ^ / ( _ #                                                           ",
"                                                        : < { { { { [ } | 1 2 2 2 2 3 | 4 5 6 ^ ^ 7 8 #                                                         ",
"                                                        ; { { { 9 0 a a a a a a a a a a a a b c ^ ^ ^ (                                                         ",
"                                                      . d { { { e a a a a a a a a a a a a a f g ^ ^ ^ h #                                                       ",
"                                                      . % i { { j k l a a a a a a a a a m n o p ^ ^ q r #                                                       ",
"                                                  . % & s t u { { { { { 5 v w 4 4 x v y { { { z 7 A _ B C B #                                                   ",
"                                                  & { { D E F G H I J K { { { { { { { { L M < N r C O ^ ^ 7 P                                                   ",
"                                                Q i { { { { { { R = S F % T U V V W & X Y Z u ` }  .^ ^ ^ ^ ..#                                                 ",
"                                                V { { { { { { { { { { { { { { { { { { { { { { { { +.@.^ ^ ^ ^ #                                                 ",
"                                                s i { { { l 2 2 #.$.4 v %.{ { { { { j v &.4 | n 2 2 f ^ ^ ^ *.#                                                 ",
"                                                . =.{ { { -.a a a a a a a a a a a a a a a a a a a m 9 ^ ^ 7 P #                                                 ",
"                                          ;.& >.. . >.` { { 5 ,.2 a a a a a a a a a a a a a a l 9 j { ^ '.B # ).!.~.{.                                          ",
"                                        W i { { ].^.s /.=.J { { { (.v ] 4 $.| | | | _.4 &.%.{ { { { :.<.# [.}.|.^ ^ 1.2.                                        ",
"                                      3.i { { { { { { 4.5.% t S 6.` { { { { { { { { { { { { ~ ; Y 7.8.9.0.^ ^ ^ ^ ^ ^ 1.a.                                      ",
"                                      I { { { { { { { { { { { ].E b.& b.c.= = = = = d.e.< c.= f.g.{ { { h.i.^ ^ ^ ^ ^ ^ j.                                      ",
"                                      J { { { { { y 5 { { { { { { { { { { { { { { { { { { { { { { { { { k.l.m.^ ^ ^ ^ ^ h                                       ",
"                                      E { { { { k a a a e n.| _.o.v p.{ { { { { { { { { +.v &.4 | n 2 a a a q.r.^ ^ ^ ^ s.                                      ",
"                                      V { { { { ] a a a a a a a a a a a a 2 2 2 2 2 m a a a a a a a a a a a t.u.^ ^ ^ |._                                       ",
"                                      . & { { { { v.n.a a a a a a a a a a a a a a a a a a a a a a a a a a n w.^ ^ ^ 7 P #                                       ",
"                                  . . . . >.x.{ { { { v 9 l m a a a a a a a a a a a a a a a a a a 0 n _.y.{ z.^ ^ *.A.# # # #                                   ",
"                              B.C.i D.u V . B.E.F.{ { { { { { 5 &.4 -.| 3 n.2 2 2 2 n.#.| G.4 H.y.{ { { { { I.J.( # # K.L.^ |.}.#                               ",
"                            B.4.{ { { { { J ^.M.B.T f.{ { { { { { { { { { { { { { { { { { { { { { { { { i E N.# O.s.*.^ ^ ^ ^ ^ h #                             ",
"                          . P.{ { { { { { { { { ~ Q.R.7.F < d D { { { { { { { { { { { { { { { { S.4.Q.>.T.F U.V.^ ^ ^ ^ ^ ^ ^ ^ ^ ( #                           ",
"                          W.{ { { { { { { { { { { { { { X.E Y.& T Z.e.Z.= = = = = = = = ^.`.^.=.& d.f. +{ { { { .+i.^ ^ ^ ^ ^ ^ ^ |.++                          ",
"                          Y { { { { { { { { { { { { { { { { { { { { { { { ` J J J J g.{ { { { { { { { { { { { { { j @+^ ^ ^ ^ ^ ^ ^ #+                          ",
"                          T { { { { { 3 2 2 n.| 9 w %.{ { { { { { { { { { { { { { { { { { { { { { { { { { %.] 9 $+2 %+&+*+^ ^ ^ ^ ^ #+                          ",
"                          =+{ { { { y a a a a a a a a a 2 1 -.4 H.v (.{ { { { { { { { { { (.v H.4 -.1 2 a a a a a a a -+;+^ ^ ^ ^ 7 a.                          ",
"                          . u { { { { | a a a a a a a a a a a a a a a a 0 2 2 2 2 2 2 e a a a a a a a a a a a a a a a a >+^ ^ ^ ^ }.#                           ",
"                          . B.~ { { { { $.m a a a a a a a a a a a a a a a a a a a a a a a a a a a a a a a a a a a a 0 ] ,+^ ^ ^ '+++#                           ",
"                          . . B.)+{ { { { j -.0 a a a a a a a a a a a a a a a a a a a a a a a a a a a a a a a a 0 9 +.{ !+^ ^ ~+a.# #                           ",
"                      . $ V s . . {+i { { { { k.w #.e a a a a a a a a a a a a a a a a a a a a a a a a a a ]+-.v.{ { { { ^+|./+# # [.#+) #                       ",
"                    (+_+D { { :+% . s < i { { { { { { y ] -.n <+a a a a a a a a a a a a a a a a 2 1 ,.w p.{ { { { { { [+}+a.# !.'+^ ^ |+( #                     ",
"                  (+4.{ { { { { { 1+Z.M.: c.d { { { { { { { { { { p.v [ 4 4 4 4 4 4 4 4 2+v j { { { { { { { { { { f.Y B.3+}.J.^ ^ ^ ^ ^ ^ h #                   ",
"                . < { { { { { { { { { { d 4+% ! c.E [+{ { { { { { { { { { { { { { { { { { { { { { { { { { g.5+Y =+>.Q.X.6+7+^ ^ ^ ^ ^ ^ ^ ^ /+#                 ",
"                ;.{ { { { { { { { { { { { { { i 4.P.Y 8+H Q.E J K { { { { { { { { { { { { { { S.J u 9+Y F T b.d { { { { { 0+^ ^ ^ ^ ^ ^ ^ ^ a+b+                ",
"              . < { { { { { 4 | | -.4 [ +.{ { { { { { { { ` c+= < & = Y.c.d+= = = = d.& < b.& = e+J f+{ { { { { { { { j H.4 g+q.q.r.^ ^ ^ ^ ^ h+#               ",
"              . J { { { { o.a a a a a a a e 1 9 v.j { { { { { { { { { { { { { { { { { { { { { { { { { { { { j v.9 1 e a a a i+j+j+j+u.^ ^ ^ ^ h #               ",
"              . 4.{ { { { _.a a a a a a a a a a a a e n -.4 k+j { { { { { { { { { { { { { { { { l+v 4 G.n e a a a a a a a a m+j+j+j+r.^ ^ ^ ^ n+#               ",
"              . Q.{ { { { 5 a a a a a a a a a a a a a a a a a a a n.n.| | | } 4 4 o | | | l 2 m a a a a a a a a a a a a a a a o+j+;+p ^ ^ ^ ^ !.#               ",
"              . W.i { { { { o a a a a a a a a a a a a a a a a a a a a a a a a a a a a a a a a a a a a a a a a a a a a a a a a o+j+r.^ ^ ^ ^ ..p+#               ",
"                . ^.{ { { { { o a a a a a a a a a a a a a a a a a a a a a a a a a a a a a a a a a a a a a a a a a a a a a a a q+r.^ ^ ^ ^ ^ K.#                 ",
"                . . C.{ { { { { v 2 a a a a a a a a a a a a a a a a a a a a a a a a a a a a a a a a a a a a a a a a a a a a n ^ ^ ^ ^ ^ ^ C # #                 ",
"                  . . T i { { { { { ] <+a a a a a a a a a a a a a a a a a a a a a a a a a a a a a a a a a a a a a a a a l [ v.^ ^ ^ ^ |.K.# #                   ",
"                      . t 4.{ { { { { { [ #.r+a a a a a a a a a a a a a a a a a a a a a a a a a a a a a a a a a a 0 | v { { s+^ ^ ^ t+_ #                       ",
"                    . Q . . H u+{ { { { { { k.x -.<+a a a a a a a a a a a a a a a a a a a a a a a a a a a a 2 ,.v.{ { { { +.v+^ '+P a.w+P #                     ",
"                  . x+i Z.. . . % E K { { { { { { { j &.$.1 2 a a a a a a a a a a a a a a a a a a n.3 9 v.l+{ { { { { { { y+h A.# z+1.^ 7 A+#                   ",
"                  W.i { { ].W . . . s & f.i { { { { { { { { { { p.v &.4 4 o -.| | -.4 4 4 x v j { { { { { { { { { { [+E B+C+# B D+^ ^ ^ ^ 1.a.                  ",
"                . < { { { { { c+Y E+. . . B.>.Q.F+i { { { { { { { { { { { { { { { { { { { { { { { { { { { { [+G+5.% . . H+P I+^ ^ ^ ^ ^ ^ ^ ( #                 ",
"                . X.{ { { { { { { [+P.V . . . . . . t F Z = d ].{ { { { { { { { { { { { { { { { J )+= S J+! . . . . =+5.K+^ ^ ^ ^ ^ ^ ^ ^ ^ L+#                 ",
"                . { { { { { { { { { { {  +I F s . . . . . . . . . . ;.V V V M+N+H U V V V O+. . . . . . . . B.>.Q.~ { { { i.^ ^ ^ ^ ^ ^ ^ ^ P+#                 ",
"                . u+{ { { { { { { { { { { { { { ` u Q+>.=+. . . . . . . R+S+T+T+U+V+W+. . . . . . X+Y+& = d { { { { { { { Z+^ ^ ^ ^ ^ ^ ^ ^ `+#                 ",
"                . 5.{ { { { { { y.-.| | | 4 H.p.{ { { { { { 1+c+= 5. @.@T+T+T+T+T+T+T++@=+= @@J #@{ { { { { { l+2+4 -.| $+6 $@^ ^ ^ ^ ^ ^ ^ /+#                 ",
"                  B.g.{ { { { { -.a a a a a a a 0 l | 4 [ p.{ { #@%@&@T+T+T+T+T+T+T+T+T+*@Q.{ { { =@v 4 -.n e a a a a a a  .q.^ ^ ^ ^ ^ ^ P+#                   ",
"                    X i { { { { ] a a a a a a a a a a a a a a 2 -@;@T+T+T+T+T+T+T+T+T+T+>@B.,@2 0 a a a a a a a a a a a a  .'@^ ^ ^ ^ ^ 1.[.                    ",
"                      U g.{ { { { | a a a a a a a a a a a a a a )@!@T+T+T+T+T+T+T+T+T+T+T+;@~@a a a a a a a a a a a a a a {@^ ^ ^ ^ ^ *.[.                      ",
"                        Q E { { { { 4 0 a a a a a a a a a a a ]@. ^@T+T+T+T+T+T+T+T+T+T+T++@/@a a a a a a a a a a a a m 9 !+^ ^ ^ ^ h a.                        ",
"                          E+(@].{ { { +.9 0 a a a a a a a a a _@. ^@T+T+T+T+T+T+T+T+T+T+T++@:@a a a a a a a a a a 0 -.j 5 <@^ ^ '+#+#                           ",
"                        . . . . >.[@{ { { { v.| 0 a a a a a a _@. !@T+T+T+T+T+T+T+T+T+T+T+;@:@a a a a a a a 0 1 w }@{ { ,+^ ~+K.a.( I+#                         ",
"                        V < s . . . =+5.J { { { { 5 o 3 2 a a |@. ;@T+T+T+T+T+T+T+T+T+T+1@. 2@a a a <+3 _.[ { { { { { 3@( _ _ }.|.^ ^ #                         ",
"                        W { i d+4@. . . . =+=.6. +{ { { { { %.x 5@. 6@T+T+T+T+T+T+T+T+T+*@. 7@w v { { { { { { X.u 8@9@# z+w+^ ^ ^ ^ ^ p+                        ",
"                        X+K { { { J Z.0@. . . . . ! x+5.u J S.{ E .  @.@T+T+T+T+T+T+T++@. Q i { { [+J I `.>.s . . a@b@c@^ ^ ^ ^ ^ ^ |.#                         ",
"                          - { { { { { { 1+Q.>.B.. . . . . . . . d@. . . R+e@T+T+T+f@g@. . =+V %@. . . . . Q F u [+{ { s+^ ^ ^ ^ ^ ^ h@                          ",
"                          $ g.{ { { { { { { { { ].- S >.T.. . . . . . . . . i@j@. . . . . . . . B.V & ; ].{ { { { { { 5 ^ ^ ^ ^ ^ '+a.                          ",
"                            =+X.{ { { { { { { { }@[ H.v l+{ ].J I = 9+& W.. . . . . % & b.= d g.{ { { 5 v &.2+{ { { { { ^ ^ ^ ^ '+a.                            ",
"                              B.- { { { { { { { -.a a a a r+2 #.,.4 H.v y 4.= = u g.j v 2+4 _.| l <+a a a a a ] { { { k@^ ^ ^ }.a.                              ",
"                                . % 4.{ { { { { [ m a a a a a a a a a a a a a a a a a a a a a a a a a a a a e y.{ { { I.^ l@m@#                                 ",
"                                  . . % E { { { { n@3 m a a a a a a a a a a a a a a a a a a a a a a a a 0 -.+.{ { { o@p@( q@#                                   ",
"                                  . ^.W . s & f.D.{ { =@w -.n.a a a a a a a a a a a a a a a a a m l ,.v.{ { { i E H r@'+^ s@#                                   ",
"                                    T.S.g.Q.X . t@>.9+f.x.{ { { n@2+4 4 -.| | | | | | k 4 o.v p.{ { { g.E Z % >.C.[+z ^ '+a.                                    ",
"                                    . 7.X.{ { [+E S a@/.. s V T Z.= u J J J J J J J J J d e+= Q+u@V v@W 5.w@i { { +.<@q@a.#                                     ",
"                                      . B._+i { { { { { ` w@= e.& X V V : . . . . s V V a@& Q+= @@g.{ { { { { { { x@~.# #                                       ",
"                                          . s < [+{ { { { -.2 2 $+| 4 4 2+v v v v v 2+4 4 -.| l 2 n.y.{ { { { R y@a.#                                           ",
"                                              . e.z@A@ +{ n@| e a a a a a a a a a a a a a a a m n ] { { ~ Q.B@C@#                                               ",
"                                                . P.{ @@e+= b.@@D@[ 4 _.| | | | | | | -.4 w v J 6.5.R.d@Y = E@#                                                 ",
"                                                  . V f.{ { { ~ u Q.Q.Z.& P.F@& & & >.H & % =.S = 4.[+{ u t G@                                                  ",
"                                                      . =+5.4.{ { 4 | -.4 4 4 4 4 4 4 $.| -.j { { f.`.s .                                                       ",
"                                                          . . B.W ^.H@I@J@K@4 4 4 4 L@M@N@I & a@O@. .                                                           ",
"                                                                  . . . . . . . . . . . . . .                                                                   "};
