/* XPM */
static char *_e77f51ffbd548dda0f0c2a95e87c2326UxfE9mVZqN0PtdM[] = {
/* columns rows colors chars-per-pixel */
"80 80 247 2 ",
"   c #2C7725",
".  c #377A2B",
"X  c #377935",
"o  c #397C35",
"O  c #3B7A3C",
"+  c #487A3B",
"@  c #3E7947",
"#  c #487E42",
"$  c #3D892B",
"%  c #3D932A",
"&  c #3C8432",
"*  c #3D8934",
"=  c #3D843A",
"-  c #3D893B",
";  c #41872C",
":  c #428D2D",
">  c #43952A",
",  c #549C2F",
"<  c #428633",
"1  c #498535",
"2  c #448C34",
"3  c #4A8C34",
"4  c #43843C",
"5  c #4A843B",
"6  c #458C3B",
"7  c #4B8C3C",
"8  c #558938",
"9  c #538B3C",
"0  c #459334",
"q  c #4A9435",
"w  c #469A33",
"e  c #4C9B35",
"r  c #45913B",
"t  c #4C933C",
"y  c #4C9B3B",
"u  c #539B34",
"i  c #53953C",
"p  c #589139",
"a  c #539B3C",
"s  c #5B9B3E",
"d  c #64983A",
"f  c #56A52F",
"g  c #4DA235",
"h  c #4DA33A",
"j  c #56A834",
"k  c #54A33C",
"l  c #5BA33D",
"z  c #54AA3D",
"x  c #5BAB3C",
"c  c #63A83C",
"v  c #6BAE3D",
"b  c #3E8147",
"n  c #438445",
"m  c #4A8441",
"M  c #458C42",
"N  c #4B8D43",
"B  c #458B4A",
"V  c #4C8C4A",
"C  c #528544",
"Z  c #568547",
"A  c #538D43",
"S  c #598D44",
"D  c #548D4B",
"F  c #5C8C4C",
"G  c #459342",
"H  c #4C9344",
"J  c #4D9A43",
"K  c #4D914C",
"L  c #4E9C49",
"P  c #539444",
"I  c #5B9444",
"U  c #549B44",
"Y  c #5B9C45",
"T  c #54944B",
"R  c #5B944B",
"E  c #559B4B",
"W  c #5B9C4B",
"Q  c #4D8853",
"!  c #558C53",
"~  c #5C8C52",
"^  c #5C9553",
"/  c #589557",
"(  c #559C52",
")  c #5C9C52",
"_  c #5D9D5A",
"`  c #678948",
"'  c #619444",
"]  c #629C45",
"[  c #63954B",
"{  c #6A9748",
"}  c #639C4C",
"|  c #6A9D4D",
" . c #749A4E",
".. c #648E56",
"X. c #639552",
"o. c #6B9754",
"O. c #649C53",
"+. c #6B9D53",
"@. c #639659",
"#. c #6F955B",
"$. c #649C5B",
"%. c #6B9D5A",
"&. c #759C56",
"*. c #76955C",
"=. c #729D5C",
"-. c #55A343",
";. c #5BA344",
":. c #55AB46",
">. c #5CAB44",
",. c #55A24B",
"<. c #5CA34B",
"1. c #56AA4B",
"2. c #5DAA4B",
"3. c #5DB145",
"4. c #5DB24B",
"5. c #5DA352",
"6. c #5CA557",
"7. c #5EAB52",
"8. c #5FB257",
"9. c #62A445",
"0. c #6BA446",
"q. c #63AB44",
"w. c #69AC45",
"e. c #63A44C",
"r. c #6AA44D",
"t. c #64AB4C",
"y. c #6AAC4D",
"u. c #73A949",
"i. c #72AC4C",
"p. c #64B344",
"a. c #6AB346",
"s. c #68B947",
"d. c #64B34B",
"f. c #6BB34C",
"g. c #66BA4B",
"h. c #6DBB4D",
"j. c #72B24E",
"k. c #78B74A",
"l. c #73BB4D",
"z. c #64A453",
"x. c #6BA454",
"c. c #64AB53",
"v. c #6BAC54",
"b. c #64A35A",
"n. c #6CA45B",
"m. c #65AB5A",
"M. c #6CAC5B",
"N. c #72A455",
"B. c #72AC55",
"V. c #72A45B",
"C. c #7BA659",
"Z. c #73AC5B",
"A. c #7AAC5C",
"S. c #65B254",
"D. c #6CB353",
"F. c #6DBA54",
"G. c #66B35A",
"H. c #6DB35B",
"J. c #66B85B",
"K. c #6DBA5C",
"L. c #72B454",
"P. c #7BB356",
"I. c #73BB55",
"U. c #7CBD57",
"Y. c #73B35C",
"T. c #7AB45C",
"R. c #74BA5B",
"E. c #7BBC5C",
"W. c #6B9C62",
"Q. c #769A65",
"!. c #64A163",
"~. c #6CA362",
"^. c #66AD62",
"/. c #6CAC62",
"(. c #6EAE69",
"). c #73A562",
"_. c #7DA364",
"`. c #74AC62",
"'. c #7AAD63",
"]. c #7FA36D",
"[. c #75AC6A",
"{. c #7CAD6A",
"}. c #6DB363",
"|. c #6AB864",
" X c #74B363",
".X c #7BB464",
"XX c #75BB62",
"oX c #7CBB63",
"OX c #76B36B",
"+X c #7CB46A",
"@X c #74BD6C",
"#X c #7CBB6A",
"$X c #7BAA72",
"%X c #7CB472",
"&X c #6DC04E",
"*X c #70C352",
"=X c #73C254",
"-X c #7BC256",
";X c #75C35B",
":X c #7BC25C",
">X c #7BCB5C",
",X c #69C06E",
"<X c #7DC264",
"1X c #74C46A",
"2X c #7CC26A",
"3X c #7ACB76",
"4X c #82AA56",
"5X c #87B956",
"6X c #83B45D",
"7X c #84BC5D",
"8X c #90BB5C",
"9X c #83AC62",
"0X c #84A56C",
"qX c #83AC6B",
"wX c #82B464",
"eX c #82BC63",
"rX c #89B866",
"tX c #82B56A",
"yX c #83BC6B",
"uX c #89BC6E",
"iX c #96BE6A",
"pX c #86AA76",
"aX c #8BB476",
"sX c #89B677",
"dX c #86BB71",
"fX c #8ABC74",
"gX c #93BA78",
"hX c #85C55A",
"jX c #84C25C",
"kX c #83C363",
"lX c #8BCA65",
"zX c #84C36A",
"xX c #87C768",
"cX c #8AC36C",
"vX c #91C668",
"bX c #8CC372",
"nX c #88C575",
"mX c #93C472",
"MX c #9AC675",
"NX c #8BD87D",
"BX c #9DD474",
"VX c #A2CD78",
"CX c #7CDA81",
"ZX c #8AB38B",
"AX c #96BA83",
"SX c #95D386",
"DX c #A4DDA7",
/* pixels */
"E.1X.X.X%Xn.z.r.-.2.S.D.:Xh.XXY.:X7XjXD.5.U c.z.c.4 7 5 D E r 2 3.% q ,.2.t <.e :.4.4.y . h e.} X.e.-.Y 3.t.e.>.z.Y .Xg.v.L.] e.j.a.:X6Xv.@XY.Z.) Y <.v.<.x.Y.T.",
"F.;X2XXXH.(.,.} W 7.2.a.=Xa.yXL.+XY.a.Y.z.P H.v.H.<.J ,.J J G.H 2 % 1.e 1.b.2.-.e -.L h L h D.B.n.S I i 2.R n.}.T [ .X=XzX7XL.] ;.9.v.E.D.;XE.[..XY.,.P.7XH.R.<X",
";XJ.S.z.#X#XH.c.b.2 U >.t.Y `.dXaX#.yX.XeXy.2.e.e.2.U 2.:.w 1.7.,.c.c.Y W 2.m.U e 0 B 6 e q -.H.n.^ W 7 -.H.M.W Z.I.I.d.oXh..Xl z e.e.v.:XzXR.Z._.6XP.B.5XU.f.:X",
"I.E.2XnXyXv.Z.n.c.z.5.) e.Y..XY.lXcXyXyXoX[.M.v.9.2.Y E -.-.<.p.K.q.p.8 t :.2.e * M J J ,.<.U 2.;.W I i w.e.o.n.x.q.<.,.5.%.c.; x 0.O.e.H.S.>Xt.&.9X&.=.V.B.t.v.",
"XXoX.XfXY.V.z.x.m.R.v.n.Z. XtXZ.U.mX+XoXY.D..Xe.W R U T r -.-.D.P.l.I.B.X.V $ } R r M E 5.;.-.Y $.`.n.r.>.-XlXkXjXG./.z.c.M.z.,.q.j.} Y <.U r.4X .N. .&.r.0.] L.",
" XdXtX'.I.M.M.;.<. XS.`.Z.v..X.XwXkX`.{ v.D.v.<.P m P K J U 4.2.} i.T.x..X@.= ) A S J ,.XXE T ) [.fXqXY.H.P.R.rXl.D.Z.e.<.D.H.<.I e.n.R Y I x.9X8X5XvX8XB.| 5Xi.",
"'.'.T.P.L.c.v.t.a t.S..Xi.x..XR.P.D.nXZ.t.e.;.q.;.A / ) E q H 6.5.r.T.y.}.O.+ + I [ I a OX_ z..XyX+XaXV.z.z.`.).x..X#XyX/. XF.L.n.Y.W R S t T.yX7Xj.5X4X8X5XhXuX",
"VXMXi.N.v.t.<.;.e z.H.I.R.A.B.B.Y.D.<X<Xh.I e.r.v.} } 7.r r N R z.v.U.r.c.;.@...R ) t.U #XW v.e.`.qXAX$X%.6.M.9XwXdXeXY.D..XU z.6Xn.[.n.G U B.A.B.y.k.5X5XU.jXmX",
"C.`.D.:Xx.6.z.z.-.b.e >.U.E.E.} C.j.f.&XF.n.z. X XV.9.<.m.-.U <.t.9.f.R.O.] M.+XA.} I O.W 9.D.<.$XzXSXQ.z.z.+.E.mXdXv.Y.v.q.a.f.L.XXyX].} ] O.S ] w.d V.A.D.[.Y.",
"9XY.zX3XY.m.wXW U <.<.2.e.D.E.Y.n.v.R.e.B.} n.`.T.Z.e.9.P > k 2.H.v.I v.t.e.e.r.N.v.m.m.X.b.-.d.#X9XVX0Xz.( _ x.rX#XO.r.t.i 9.B.Y.M.'.iX8X{ F F P.5X4XC.=.<.x. X",
"9.I.3XCX2XM.m.,.-.a k d.F.S. X XN.y.9.I P O.n.Z.B.c U t.v.U A , x c.z.B.n.W I .XB.I D.I.R.Z.M.Y.'.=.c.t.`.`.+XT.7XR.bXL.f.X.n..X X}.kX4Xv p 8 ` r.L.4X&.B.Z.X. X",
"D.f.DX,X:.S.nX(.t ,.t.>.D.@XXXoXv.b.b.F X.r.d.D.} i C m.` a ;.p q.q.Z.M.z.O.r.T.F.R P y.B.f.v.M..XaXo.z.V.x..XY.U.H.oX;Xh.+Xv..XR.} v.6Xv d d ..Y B.6Xi.V.z.O.m.",
"r.W = ( c.3X8.5.E 1.>.d.I.J.I.U.y.;.Y.yX.XR.4.2.e.e.o.c.Z.z.v.y.q.I.Y.%.+.f.:Xd.;XI.,.^ } P q v.uXaXAX_.Z.B.Z.B.A.r.I.q.Y.k.:X7XL.L.B.e.r.i.n.E U x.T.A.%.O.W t ",
"U 5 L H.W * = t ,.>.;.h q.Y.L.P.r.c.H.c.e.k 2.G.n.Y.z.f.n.cXkX>XH.E.kXcXU.t.,.-.H.t.<. Xn.O.P e.C.V.gXgXY.T.E.D.x.B.y.I.y.s.l.<Xf.L.P.v.v.Y.$./ V.C.{ '._ ! 5.c.",
"Y ( U J H G r J i U <.J <.a i B.] v.m.<.2.S.W H.n.+ U u I.I.I.F.Y.Y.kX5X-XH.m.e.5.O.U 2.c.2.<./.+XL.#X.XZ.c.D.=XoX'.y.p.y.v.e.v.c.%.x.] v.9.Z #.Q.C.9 R _ / P t.",
"m.<.y J H G w H -.t ,.E m.H T n.r.t.W 5.z.( 2.^ O.W W U t.d.h.d.yXoX{.v.L.Z.x.O.7.2.e Y 9.t.2.t.L.Y.v.v.v.t.d.g.R.t.W q j -.W e.x.`.r.' tX8 ..0X^ ~.[ D ^ b.~.@.",
"W U 4 b o b J G L ,.V T I W n.H.-.>.t R @./ ) z.z.z.z.P E >.t.' '.uXaXV.wX#X#Xy.c.>.Y } W G 1.2.e.9.<.<.c.-.1.u :.G.H.a e z -.I | a ] ` 8 ` ~ O.6.6.<._ _ !.[._.",
"z.H ( B =     - o m C W C n.~.( l y ) x.`.H.n.n.S.5.c.v.W $.Y.Y.'.oXlXmXdXkXY.M.Y.a.B.Y.5.,.,.t.v.9.a 2.R <.k -.:.4.S.G.t * H.T.n.^ [ C.&.*.$.W <.W H A R ).%. X",
"5._ G = X X = X H G t t S @.+.W k S.`.`.t.y.*X2.2.c.v.R.R.n.B. X+XB.7XbXwXR.R.v..Xt.y.w.c.t.s.>.x.W T c.W U -.7 -.g :.2.h e t q.z.H [ A.B.Y.e.P E N U W $.n.}.7.",
"E 4 & b Q 4 n K N < q a U tXz.9 q z.pX#.t ;.y 1.r W ;.H.d.T.e.Y.tXeX7XoX).} } H.q.a q.u >.h.4.t.w.M.z.;.W J <.) t.a g M B -.<.1.W M.%.W } n.-.U H c.z.O.!.!.= < ",
"G * - ! / O / B G m 6 U 1.S.z.I 5 +.aXQ.' r a 7.;.e.y c.S.XXi..XZ.L.L.I.nXB.D.W k w.q.I   e 2.H.v..XL.Y $.W z./.M.U 2 G G <.;.U W %XfXQ.^ y.<.E 6.b.6.R / V B - ",
"& G M n Z # @ b n n o T U w -.<.O.n.+XaX{ T E ) R z.a n.p.D.U.x.x.t.v.e.oXD.d.e.<.} t.e.p 3 v.+.z.d.s.Y.z.<.dX'.;.e R 6 J m.^.5. XyXpX_.I V..Xv.z.z.U 5.E O O G ",
"A ) |.r W T ( 6.T T G 4 X & T z.v.&.Z.L.A.Y.} /.Q.o.n.5.0 >.L.>.i e 9.y.H.<.t.M.:.9.c.d Y ' I N.M.2.c.6XT.L.kX{./ 4 ^ R Y U /.W } n.zXsX@.%..Xn.n.z.b.^.b.n m E ",
") M.b.^.( J ) T / ) B O O K ,.;.XXn.z.c.| x.R [.AXqXwXx.;.;.l z.z.U 5 j >.}.I c.E n.e. Xy.=.o.&.e.D.Z.oX<XH.Y.Y.n.m + R e.P ;.y.t.H.wXyXO.W .X X;.,.n.%X6.r H H ",
"$.qX+.A /.m.}.R ` V ( !.N H 5.3XoXF.R.2.} O.[ V.aXfXvX9.;.i R z.P ;.e., a.q.Z.z.m.S | eXF..XZ.v.P t e.v.R.c.mXe.<.x.0XV.x.<.^ ~.<.M._.#.Y M.}.M.7.5.H.^.z.6.1.2 ",
"s } d r.x.V.z. XdXb.J ,.t 6.S.XX2.S.R.c.t.B.V.A.gXtXeXB.v.A $.x.`.;.r.e.y.f.=.$.V.f.E.d.E.Y.[ D ) L t E t.t.L.Y.o.v.B.A.x.D.G.I.R.M.wXgX{.e.$ t <.E |.8.|.3XD.] ",
"j.U L.I.N.Z.e.z.c.G L 5.E z.j.N.2.W z.s y.B.rXrX.X X<XH.H.tXn.I.Z.xXcXF.I.hXhXyXj.q.<.:.H.D.R W E H J H c.t.L.y.r.e.z.z.R t v.N.a i eX_.[.C ^ H N 5 ^.3X1X}.3XL.",
"r.z.I y.;.<.,.G a t T 5.E U E O.%.W oXd.x v.v..XoX<XF.K.z. XY.v.oXL.h.R.XXI.kX7X;Xm.W e.m.z.z.r.W c.2.F.c.y.t.-.e.c.+.O.z.2.R e.e.W n.Y.n.m.m.p F ~ b.4.W _ H.f.",
"c./.W.).<.6 G B T 7.,.N 7 z.n.2.z.@Xv.x.z.<.P.vXy.E.R.I.<XdXn.x.f.h.g.I.oX#X+Xy.I.n.} x.H.n.P.wXP -.U U c.f.Y $ t z J. XY b.t.2.W v.e.v.;.c.M.e.A.x.N..XZ Q.O.v.",
"T /.).Z.P E B X   = 4 m I F %.U Y XXT.{.A.P.A.P.L.c.K.E. X#Xv.z.;.>.} e.[.gX0X'..X#XR.t.W %.B.y.] -.P P Y e.e.U Y s j q.H.Y 6.H I N.L.D.t.,.c.) d.-.{ ` ..) <.2.",
"I $./.7._ G b O n 4 H q U R x.i E.<XR.N.C.9X` &.0.0.T.tXtXZ.v.v.W 6.Z.Y.Z.zXhXcXtXzX.XM.m.Y.H.e.i P W E + n.%.P >.Y ;.w.r.n.^ Z.y.L.*XD.r.T 2.S <.e.{.B.z.) E H ",
"O.W.K G H = ! V B N N 6 U 3.H.p z.F.S.y.o.6XiXwXr.7XtXtXwXr.Y.v.Z.n..X XwXB.vXdXoXY.Y.H.oXD.2.z.I 2.9.L.O.c.e.2XZ.P.>.h.xX[.V.y.;XK.F.<XD.Z.;.$.6.#X`.c.e.U E m.",
"R V O - 6 G m C Q B V o H w l z.x.x.| A.5XhX5X4XhX7XbXMX9XZ.D.c.H.Y.} R.tXeX7X#X+.x.v.D.I.y -.H.S E u } x.t 5.oXkX:XH.U.:XxX7Xt.<.J ;.v.D.L.D.Z.e.zXXX5.y.2.+.6.",
"^.) m E ) ^.,.) 5.6.) K X b <.t.`.e.B.wXeXd u.5Xu.B. XZ. XR.k H.Y.Y.e. XT.L.L.oXbX9.c.e.l D.<.O.O.H H T V m W I.R.s. XI.oX6X-XI.[.W 5.`.z.-.L.E.XXG.c.R {.n.+.5.",
"m.) G G n.{.b.E m.S F T ) V ,.2XF.I.2.Z.{ r.u. .=.x.O.B.f.D.U m.f.F.T.V.B.Y.y.R.zXF.D.W e.Z.6.z.H.E U S D ~ W t.f.>.T.dXpX%.v.XXT.i.;.c.x.5.[ V.R.XX XN H..XE e.",
"|.|.1Xe.r.{ ] x.Z.V.+X,.H E 7.2.:.7.i.n.S Z.k.9X .`.z.z.y.2.W 2.w a.rXI.v.N.i.L.F.h.L.U [ `.`.m.t.m.c.t.Z.%.<.U 2.} .X.XbXwXtX.X#XY.H.V.+.D ~ W 7.S.e.-.e.<.c.z.",
"3X,XXXR.9.9.U.B.oXD.c.5.E #X`.q.c.I.5X8 ` T D.C.j.%.z.P ] 4 W e.-.e c.d.oXY.} B.t.Y.y.t.n.Y.t.d.-.E ~ ] c.B.v.O. X<X'..X7XmXfXuXR.Z.oXZ.x.z.=.S H <.v.;.5 ( A N ",
"=X}.Y.a.i.] +.} >.d.E.B.v.E.M.t.:.h.v d [ W e.T.A.%.( M.2.E ,.y J G U 1.5.%.x.t.y.z.k H.V.I U y 1.<.z.X.]  XK.n.Z.Z.`.T.T.mXY.0.Y.y.B.m.a 2.} I c.i O.b.) Y { $.",
"*X<X<X-XC.I C.v.H.e..XeXH.D.N J 6.SXi.0.n.E +.C.x.T $.T R z.E M = - * - M P i 9 ].W q R pX*.s H E ~ )._.Y D.d..Xv.e.{.rXoXD.yXn.} D.c q.k e -.G.S. XR }.b.X.T.Y.",
"3.#Xd.E.'.=.'.W W z..X<XS. X} W . z.z.L.n.~ =.V.Z R b.b.x.U J T M & o 4 P P a ;.H.c.I [ +XoXN.m.R pX0XtX-.Y d.oXL.A.N.L.R.I.kXyXD.;.;.9.>.H i j q.w.Z.O.+.c.;XF.",
"U 7.n.H.v.f.x.e.5.c.Z.z.2.z.E M . Y 9.r.9 Q.#.!.O.b.q.i h ;.E E W P V E ;.e.I <.h a 5.Z.V.B.N.r.O.fXgX.X9.z.2.S.U.A..Xv.C.9.R.;Xg.v.y.V.M.<.Y u a.y.x.=.N.y.>.i ",
"} 5.v.n.| D.M.U a ;.Y.T x.x.I z.n.e.N.` ` ..5.1.P k t.z.U 7 e 2.H.T T _ c.Y M.U o G <.R.m.c.e.z.o.A.fX>.-.W a h d.I.d.v.Z.v.R.q.Y.B.v.z.) q.y.y.>.I.f.R.wXq.a e.",
"z.Y ,.<.e.v.e.U g a W m.;.`.;.;.t.v.r.&.o.$.) H P S c.I a e.u a.c v.^ 6.F { .X2.n ( c.1XS.K.2.;.C.6XB.2 : a -.z -.e.d.I.Z.v.f.Y y.Y b.x.`.z.Y.E.Y.v.g w f.;.>.D.",
"s 3 1 j 9.x.t.i w t x q.M.O.m.T I tXD.'.L.y.U H T F z.n.s e.} D.y.+.$.$.f.R.D.;Xb.6.}.M.H.e.U %.x.z.<.< 0 a -.<.Z.O.<.d.q.] N.$.b.y. XI.H.v.e.e.e.k : $ z t.>.;.",
">.y P q q Y r.I U e., p.9.).^ M.Y.p.;XoXr.x.<.<.[.x.D. XkXeXR.R.:XlXyXP.q.d.-.XXq.E Z.V.Y z.z.Y.a t < t q U E e.v.} <.l y.x.n.n.<.;.<.e.t.) L.2.P 2 4 e ,.-.-.W ",
">.9.p i P m b.`.} D.r.S.I.Y.V.a.D.d.H.l.+.x.T.z.n.z.^.XXj.I.F.2XL.jX7XU.M.5.U c.W i } r.Y D I.-.y 1 N W q A T < t [ m.t.n.[.OX`.U 2.<.B.z.6 k U < N U t P D.a.Y.",
"d.y.e.i D.Z.x.I.#XjXR.#XP.lX7XR.}.<.W n.v.O.'. X2.<.n.D.a.&Xd.yXY.+XL.F.x.z.R S.m.E y.B.m.E % P a 7 5 -.W 6 U A Y 0.e.P @.W.%.x.U O.`.Z.q.6 & q P t U R e.d.w.q.",
"D.r.v.9 Y n.A D.:XE.s.oXY.oXf.I.C.e.5.c.5.U M.+X5.<.m.<.q.t.r.[.fXqX=.+X#XoXq.t.e.z.n.v.y.R o r 0 P i t U ) E W 9Xr.<.%.b.m.O.@.$.m.m.z.W U U T 7 ; P c.v.q. X`.",
"D.y.<.} Z.n.U 5.>.f.>..XfX].).T.yXY.D.oXm.z.e.r U c.x.<._ x.Y.'.#XlXzXtX#XoX(.D.z./.'. Xe.<.y t N 7 ; 6 P Y C n.P.x.x.M.%.} z.ZX[.6.@X5.OXm.c.-.U 2 s e.I B.y.B.",
"<.c.n.n.%.+Xb.I 6.U x.Z.eXlXfXdXR.R.Z.m.D.%.D T N x.H.v./..XY.uXY.eXmXwXR.Y.H..XW <.z.z.W T U c.;.a Y ; i W @.U Y D.y.z.P z.).`.aXc.g.}.S.v.5.R I v.9 ] B.t.L.L.",
"B.a.n.Y.D.Z.v.v.<.Z.yX+X.XA.cXB.Y.v.D.Y U .XO.z.9.y.H.H.Z.x.H.+X6X6X<XV.r.x.D.H.U }.}.m.z.#Xc.5.U S } H.A T S T R W W T ,.[ x.$.H.t.W 2Xv.z.v.^..X%._.e.e.I.R.E.",
"9.x.W v.I.I.c.R.H.Z.z.`.uXeXR.dXe.v.e.q.w.D.W S.l a c.H..Xy.Z..XR.L.K.bXx.y.x.t.D.G.K.G.c.7.M.2.b. XZ.V.%.W R I ] ;.z.<.U E S P W <.U Y.m.} B.v.R.x.M.P <.v.a.v.",
"e.e.u.9.s w.k t.d.oXv.Z.j.T.R.zXI.d.%.B. Xc.I t U u v.K.D.R.Z.C.P.B.P.<XI.f.z.`.B.c.:.D.XXm.z.D.z.n.oXZ.Y.P r.v.a.z._ # 5 <.R U A P ~ m.nXoXeX~.T.T.R b.I R.a p.",
"D.I.j.k >.I.k W t.I.P.C.Z.B.e.R.h.L.`.n.M.H.e.i ,.W 5.w f.6XE.I.+.B.L.F.&XD.V.b..X X<.Y.#XF.P [ Z.D.H.C.c.X.W ;.e.P [.6.n.-.,.t.C.}.n.) H.S.R.Y.B.y.D.V.c.2.<.f.",
"h.a.f.v.v.g x z.-.k H.F.R..Xi.L.9.L.l.6XT.} c.A F P W U k v.w.eXY.v.v.D.v.B.v.z.W <.2.<.}  X#XY.B.} z.B.<Xz.v.d.r.R.m.z.M.M 6.c. XF.=XH.1X2.R.R.D.1Xe.z.p ;.2.M.",
">.e.e.c.y <.>.s 2.:.d.p.I.Y.L.d.a.d.I.<Xt.w.e.I R C i ;.U <.2.c.n.V.D.q.I e.T 9 7 e.Y D x.R. Xc.U H W e.<.W S.2.w.c.'.,.6.S.,.G.:Xv.a.2XSX&XF.K.F.v c q.<.t J t.",
"P ^ b.~.;.t.2.9.w i 2.:.x S.e.a x k q.c.-.U ;.t.} O.) e.O.x.y.v.9.z.Y <.P <.P E R I R ).$.W v.2.z.W b.y. X6.^ b.o.} +.b._ N O.G.I.eXC.W oXY <.m.v.e.e.>.H.c.v.Y ",
"#.Z 5.2.,.-.s -.P ) -.y >.S.<.e % > k ;.W :.D.c.+.} U t.e.e.D.I.e.m.t a ,.Y W W v.T.v.H.e.m.S.D. XT.V.S.f.a.t.c.2.Z.z.=.0X@.5.z.b..X%X( M E G.}.z.) b.;.<.S.t.v.",
"aX+X Xt.q ;.;.i a c.z.+.O.,.-.$ 0 7 e 2.H.z t.r.I i 1 2 -.v.e.t.9.<.a e h U W 5.U B.>.>.l e.v.O.XXzXH.E.d.D.I Y +.B.cXMX6XC.6.D @.o.^ E R T ;.I.n.Y.) ;.<.,.c.m.",
"~.z.y t <.Y } ,.t W v.Y.;.U H $ H q % -.z a 9.[ a 3 1 7 >.9.| f.t.Y q r q >.c.H.O.$.M.E c.Y Z.B.3.e. Xm.e.c.z.x.) v.x hXjX Xb.{.+X`.n.R R V < i A O.5.U m.c.M./.",
"+Xz.-.Y 5.e.B.Y.E J q.-.q 1 ; H * a W 4.U d.{ t.x t E i 2 q Y U 9.c.;.P R f p.>.H.| /.m.A { '.R.S.v.R.n.5.5.z.M.9.H.t.x.9.O.Y.R.}.oXyX6.<.<.N U } S z.c.z.%.$X$X",
"n.v.t.} n.n.x.y.v.2 * W : 7 R W 0 P 7 f.D.R.D.3.d.l a p ; 7 7 F M.} 9 ;.;.p f.w.r.`.E '.v.Y.I.&X<XzXw.w.x.c.<.K.A.[.Y.t.7XL.P.Y.G.H.XXOX2.7 D ] 0.0.} P @.%.!.~.",
"o.W T ) m.Z.`.t.E < 6 0 t A t k T i 2.3.F.a.f.l 9.y.Y 3 t.e.T F c.Z.v.;.x.y.t.D.R.V.=.r.p.E.d.d.zX-XE.B.r.e.<.L.R.V.4XA.C.E.d.L.I. X#XZ.) R O.A.C.} e.X.@.z.O.^ ",
"@.OX!.W b.m.z.e.<.J P 6 3 a 7 U ;.4 } w.D.e.a S.t.y.Y r.I H.Y.V.H.Y.#XkXeXI.H.-XlXxXeXI.t.U t :.}.>.C.B.t.v.} f.y.' V.{ o.y.' R.Y. XyX<.V ^ n.E.L.x.M.n.n.5.M.m.",
"$XZXF.6.|.}.z.n.b.<.7.<.Y < 7 6 z.z.v.9.I.eX`.R.v.x.e.} R z.`.o.k I.oXL.j.F.R.L.R.7X7X-XH./.R c.%X%.x.i 2 ;.x.D.y.C.l D.T.r.5Xv.} Z.Z.;.@.R X.v.9.e.e. XO.[ x.z.",
"_.DXZXG.J.K.c.S.c.c.) h a W $ u e.} } x.9.E.Z.Y.p.H.v.I I e.X.9.5.D.-XI.=Xs.#XT.oXtXf.I.v.n.I c.4.n.c.U N ;.] e.y.U g u ] v.v.oXT.r.r.O.[ R I I e.f.r.v.E A %.%.",
"^ `.m.e.h K.2Xm.R c.,.R S { m.7 I e.t.9.] I.#Xy.2.e.z.B.z.'.Z.P D <.t.q.t.>..XyXaX=.V.T.#XoXL.t.t.H.W I t t a Y e.z.E < l D.5.z.e.-.} 6.W m ) S Y W R A ,.e.n.Y.",
") m.z.t.U <X}.D.} G.b.m.Z..XO.o.' y.L.L.L.kXi.} v.d.).m.@.%X'./.F <.<.,.z.r.+X XbXkXtXtXyXoX XM.H.XXXX5.P A 7 Z c.I k } f c c.r.n.W i R R R c.e.U 2.c.W H N Z ^ ",
"p i I E 2.Y.oXt.S e.v.n.#XY.).yXr.<.;.I.I.2XE.T.q.v.V.XXXX XV.c.v.z.t (.oXY.V.Z.kXlXgXsX<XY.Y.Y.+Xp.h.} +.v.z.n.v.`.;.r.e.a.x.x.x.n.} W z.i d 9.e.x.5.W E I W N ",
"K X U P + Y H.#XOXrXP. XY.A.v.c.R e.<.v.y.;Xt.9.x.} } v.D.F. Xe.oXv.v.V.T. X[..XA.vXcXY.r.Y.v.f.Y.J Y '.B.n._.W &X#XzXjXS.I.kX+Xx.f.R.R i y.T.q.<.6.Q # m W U T ",
"<.o.R O.W.~.v.yXH.:XeX/.T..Xv.D O.P Y R.9.l t.D.e.9.] t.y.j.h.t.R.G.H..Xx.f.).wXeX7XXX'.x.e.v.v.c ;.D.:XZ.Z.o.<.c.L.E.h.Y.Y.kX7XU.t.<.O.P U D.e.U $.$.^ F ;.t.T ",
"c.B.M. XM.R I H.S.K. XoXY.P.R.z.~.m.9.Y.Y p.I.Y z.i. .;.u >.w.l q.c.v..XB.x.'.T.F.L.E.nXwXt.<.i k w.w.L.n.qXm.D <.q.F.p.eXoXtXL.I.M.z.M. XI.c.| m.}.H.2.H.a G 6.",
"c.XXS.:X;XY.|.;X8.@X7.m.v.Z.W y.x.z.t.t.2.y.F.I.L.I.D.l t.f.D.u a c.R.XXL.T.N.B.P.Y.B.<X<Xh.D.+.Y.B.oXY.G.yXM.O.<.U Y e.oXaXqXV..X Xe.z.D.>.j i.R.m.%.c.n.K K 5.",
"7.H.G.y.q.w.@X2X7.h.R.zXf.<XR.e.x.8 ;.9.>.W v.l a.a.r.w.c.x 3.z <.M.S.a.7XA.R.v.B.i.y.I.=Xh.M.).+..X X}.I.R.v.Y.v.n.oXY.V.zXvXyX.XXXE ,.5.2.t.q.b..XH.L 6.8.,.2.",
"G.D.U.0.f.x.SXNXs.q.R.2.d.s.a.>.v.q.<.a ,.e.D.F.q.v H.c.e.e x >.I 7.0 h F.R.h.H.V.x.v.L.-.oXL.;XV.A. X;.c f.<.R.K.Z.Z.Y.+XY.eXbXY.R.b.W _ ) n.} R V.Y.( W.) e.,.",
"c.R.wX6XB.z.;.D.t.t.k e z 9.c.c.U e.e.-.e.e.9.i 9.a M.-.t Y k x 9.W -.z 2.L.g.#XT.n.L.l.y.i.l.k.cXB.P.n.x.f.a t.d.Y.O.} C.R.7X X[ v.v.c.<.x.e.e.M.I %.W...T z.z.",
"7.6.T.tXOX) P P <.9.z.<.N q >.S.z.z.H.<.} V.f.t.r.x.t.b.U <.-.;.U q h g 3.D.d.;XR.Z.9.p.l.E.h.l.lXI.I.kXB.9.a c.D.R.;.7 W v.R.cX.Xe.x.q.;.z.M.b.oXY.x.0XgXR 6.5.",
"! ~.%.V.[.b.( t C v.Y a 9.s v c v.x.c.^ [ '.R.<.I ;.t A e ;.>.9.a.z U e 4.>.k p.S.} W e x t.;.v.H.F.;.jXL.D.U z.h q.v.e.o.A.y.R.<Xs.} e.r.<.) +.A.mXMXgX4X'.b.) ",
"^ W.~.F ) N R R Z b.n.Y t.} v.f.x.@.R v.I.I.h.Y.I Y ,.N < U -.9.w 4 r 2.h e -.4.J.m.2.r e a <.Y ;.S.^ O.e.S.<.W -.2.c.#XoXA.L.U.h.L.).x.z.n.) .X;., hXBXeXR.+.) ",
"+XdX[.V.m.$.} Y.v.<.S.eXeX:XG.I.xXzXT.w.t.-.S.L.e.7 P 7 9 U d.i P $ -.-.-.y <.z 4.S.}.t.g z t.R +.z.^ z.;.e.r.z -.v.I D.Y.+Xv.D.y.P.;Xv.x. Xs oXF.d.c D.y.Z.n.OX"
};
