/* XPM */
static char *_eb26fbf8d0f4671ae9a08d2c6909a53PTa4pG1ZiwCv7vr9[] = {
/* columns rows colors chars-per-pixel */
"80 80 191 2 ",
"   c #4A3A2A",
".  c #553523",
"X  c #593924",
"o  c #543D29",
"O  c #5E3D29",
"+  c #5B412D",
"@  c #564332",
"#  c #5B4331",
"$  c #5E4936",
"%  c #5D4A38",
"&  c #69452E",
"*  c #67482E",
"=  c #614631",
"-  c #654A33",
";  c #6C4D34",
":  c #644D38",
">  c #6C4E39",
",  c #6D5037",
"<  c #65513D",
"1  c #6D523B",
"2  c #775036",
"3  c #73543C",
"4  c #76583F",
"5  c #7D5B3F",
"6  c #665541",
"7  c #6F5642",
"8  c #6D5A44",
"9  c #725641",
"0  c #745B44",
"q  c #7C5D44",
"w  c #725E4A",
"e  c #7B5F48",
"r  c #766147",
"t  c #7D6146",
"y  c #75624C",
"u  c #7C644C",
"i  c #7E684D",
"p  c #746551",
"a  c #7A6651",
"s  c #7D6A54",
"d  c #7F6D59",
"f  c #805E46",
"g  c #826246",
"h  c #83654B",
"j  c #8B674A",
"k  c #85694D",
"l  c #8A6A4D",
"z  c #926C4C",
"x  c #826751",
"c  c #846C53",
"v  c #8A6D53",
"b  c #826E59",
"n  c #896F58",
"m  c #926E54",
"M  c #867157",
"N  c #8C7156",
"B  c #85715B",
"V  c #8C745B",
"C  c #8E795E",
"Z  c #927355",
"A  c #9A7655",
"S  c #92765B",
"D  c #9B7759",
"F  c #94795D",
"G  c #9A7B5E",
"H  c #A56F48",
"J  c #A5724D",
"K  c #A07555",
"L  c #AA7A54",
"P  c #A27D5D",
"I  c #867460",
"U  c #8B7662",
"Y  c #8E7A63",
"T  c #8D7C6C",
"R  c #927760",
"E  c #947C63",
"W  c #9A7E63",
"Q  c #937E69",
"!  c #987F69",
"~  c #A57F61",
"^  c #968066",
"/  c #9C8265",
"(  c #96816B",
")  c #9C846B",
"_  c #9E896E",
"`  c #958372",
"'  c #9B8672",
"]  c #9D8973",
"[  c #978679",
"{  c #9E8C7A",
"}  c #A28466",
"|  c #AD8562",
" . c #AE8967",
".. c #A1866B",
"X. c #A9876D",
"o. c #A3896D",
"O. c #A98C6D",
"+. c #B78A65",
"@. c #B48C6C",
"#. c #A18770",
"$. c #A48C73",
"%. c #AA8E73",
"&. c #A28E7A",
"*. c #B68E72",
"=. c #A69075",
"-. c #AB9275",
";. c #A5917B",
":. c #AC947B",
">. c #AE987E",
",. c #B19476",
"<. c #B1967A",
"1. c #B3997E",
"2. c #B99C7D",
"3. c #9E8D80",
"4. c #9E9087",
"5. c #A28F82",
"6. c #A59482",
"7. c #AA9681",
"8. c #AD9A83",
"9. c #A49489",
"0. c #A99789",
"q. c #AD9C8A",
"w. c #B09780",
"e. c #B39C83",
"r. c #B99E83",
"t. c #B39E89",
"y. c #AB9D92",
"u. c #B6A086",
"i. c #BAA186",
"p. c #B5A28B",
"a. c #BBA48C",
"s. c #BEA88E",
"d. c #AFA194",
"f. c #B5A492",
"g. c #BAA691",
"h. c #B7A895",
"j. c #BDAA94",
"k. c #B5A798",
"l. c #B7AA9F",
"z. c #BEAE99",
"x. c #BDAD9A",
"c. c #BEB09D",
"v. c #B5AAA0",
"b. c #BAAEA3",
"n. c #BEB0A1",
"m. c #BEB3A9",
"M. c #C1A78B",
"N. c #C2A98E",
"B. c #C2AC94",
"V. c #C8AF93",
"C. c #C1AE99",
"Z. c #C6B096",
"A. c #C9B196",
"S. c #C1B29E",
"D. c #C4B29C",
"F. c #CAB59C",
"G. c #CEB89E",
"H. c #D1B99E",
"J. c #C4B4A2",
"K. c #C6B6A5",
"L. c #C9B7A1",
"P. c #C7B8A5",
"I. c #CCBAA4",
"U. c #C0B6AC",
"Y. c #C8B7AA",
"T. c #C6B9AB",
"R. c #C9BAA8",
"E. c #CCBDAA",
"W. c #CDBEAD",
"Q. c #D1BDA5",
"!. c #D1BFA9",
"~. c #CBBEB0",
"^. c #CFC0AD",
"/. c #D2C1AC",
"(. c #D8C5AF",
"). c #CFC2B2",
"_. c #D3C5B3",
"`. c #D3C6B6",
"'. c #D6C8B6",
"]. c #D9C8B4",
"[. c #D3C7B8",
"{. c #D5C9BA",
"}. c #D6CABB",
"|. c #D9CCBC",
" X c #D7CEC1",
".X c #D9CFC1",
"XX c #DCD2C5",
"oX c #DED5C9",
"OX c #E0D7CA",
"+X c #E1D9CE",
"@X c #E3DBD0",
/* pixels */
"Y B.a.B.r.:.#.1.:.F ( 1.i.1.1.-.r.! %.; a v <.%.N $.<.$.r.E a W E r -.D G P K S y.[.`.`.C.{.R.K.K.j.f.S.D.p.D.j.a.a.o./ ( %.F O.o...O.l W v Q %.t.:.a.D.M.t.z.<.",
") a.a.r.w.7.>.u.i.E E -.-.-.,.=.e.%.! 2 w S :.-.....F o.:.F v E O.8 X.S | } } N 9.[.E.~.W.}.C.D.K.z.f.D.E.C.D.j.j.i.>.) T -.W %.W S -.m W g ! -.w.t.r.F.t.t.g.1.",
"B i.t.i.#.$.$.:.i./ C 1.a.<.-.} %.-.! q b V :.W W ..! ..-.N a F $.c O.} D } } v q.`._.P.t.[.J.J.W.c.&.L.j.q.j.8.a.a.r.>.U r.h / G v W m W 5 ( ) t.-.a.j.:.w.B.e.",
"_ 1.r.<.=.8.e.<.8.=.' 1.1.-.O.%.1.<.o.9 e v $.X.W %.#.o.-.^ i } / v H S Z O.O.t f.`.E.E.K.[.R.W.I.x.;.L.L.z.g.a.N.a.:.O.B r.W X.W %.$.G S f T _ w.w.t.C.7.7.g.<.",
"( r.t.O.:.-.:.:.w.:.^ 1.i.o.W -.1.%.F 3 d ) >.#...W W $.-.R 0 ..W k k / A  .F v 0.T.W._.D.E.`.P.K.c.` j.D.I.p.B.Z.w.:.o.b $.R X...W o.q W q T E #.-.w.t.7.' C...",
"Y B.e.1.$.=.$.a.a...Y i.M.r.,.-.:.%.! g r W =.$.o.1.%.#.e.n t F v i W F Z G W c 6.E.W.{.I._._.L.^.g.] z.g.S.s.t.:.e.a.-.V -.S W W E F v n h U ) &.w.e.:.:.w.B.<.",
"w :.' E Y 8.$.r.u./ B 1.s.O.=.<.<.%./ f d G O.$.! W G R w.c 0 N F M F } Z Z S v 7./.].|.I.|.^.S.R.S.;.p.D.D.a.t.p.r.i.$.U $.S W S <...k k v E #.X.#.t.e.&.t.a.%.",
"b :.t.=.=.:.%.e.=...F 1.-.} -.-.,.$.Z 3 i F / / ..G ..F 1.c u S X.W W ) q k W g 0./.^.`.E.{._.S.P.S.;.z.c.D.p.p.8.a.a.-.U %.N Z W %./ v t 2 U :.#.$.:.<.! f.M.%.",
"y i.r.o._ u.=.e.t.) Y 1.%.=.} ,.%.W t ; 0 W V F O.Z ..E 1.M u E %./ V F u S } q q././.{.I.|.^.K.S.D.;.c.I.D.p.:.B.a.i.=.B ) l F v O.W t 3 ; ` ) Z :.t.<.$.>.u.} ",
"y i.u.:.E O.N -.u.-.V O./ G N O.O.$.v > 1 V E t / / =.) i.N u C O.} / / u N D h q._._.`./.{.`.`.I.g.6.D.S.D.g.>.r.>.1.%.E _ l S N O./ 3 , ; ( ) N 1.:.:.( e.8.} ",
"B 1.r.$.x -.M :.w.=.u / -.k v ) F F g 3 w E N b ..$.-./ i.k i k F } c F k t S v f.'.^./.P._.'./.P.c.q.F.a.D.u.p.a.-.s...U } t l k O.W , > g U _ :._ t.o._ $.%.-.",
"B 1.$./ / _ _ ..-.$.i E G M N S ) ..q = 1 F o.o.o.W o./ O.c c g / S c F N k G Z q._.F./.S./._.I.D.s.:.j._ 8.Z.p.t.=.N.S a } 3 N v / S , 4 4 B o.:.&.a.:.E &.$.O.",
"a -.) ^ ^ E c ..$.o.M / G u u c u F v O 9 n / %.E } o.o._ u x v F Z M C t t N k 7.^.D./.c.P./.D.^.>.>.j.>.u.p.;.2.=.1.F c =.q A h / G ; q t Y / O.;.g.t.-.0.1.} ",
"y E ) o./ W ) G ^ ) c V F F c c a h h X > ) W ! :.E W n / k c N Z ^ k C M g N l 8.I._.R.D./.I.z.Z.>._ z.e.e.Z.=.1.:.-.l 8 _ 3 t k G G - 5 l s $.) 8.B.t.$.8.e.O.",
"6 F o.) o.E V a M ) u N F ^ S F x N c O - / E I &.E x V E v u k A C M 0 r t 0 t p.P.P.D.^.S.D.s.h.=.T a.:.u.Z.i.=.-.u.N y M 3 g S / / M 3 t U o.) 7.a.:.) e.p...",
"< / V / ) C i u B ) a C ) _ F B u t k . 8 :.e.' ) ..f U ) i u k Z ^ C M y N t g 8.^.P.g.P.c.j.D.a.o.V 8.>.p.a.p._ 1.-.N a v t k S -.W i 3 j b q.:.8.q.#.) p.p.-.",
"< / ^ S E E 8 8 s ^ < ^ Y ^ C s i M v X x 8.e.' _ ! x U U N s N v S E B N x ; q p.S.F.S.J.h.s.h.>.^ ^ =.>.=.8.>.=.-.>.g r i k M S o./ F v g a p.>.0.x.;.) $.p.<.",
"< S S C _ _ 6 y s ( < ^ ^ ( C d B V V X U a.8.$.' :.S n C U k l F C V U B N 3 3 6.^.z.c.c.p.p.p.a.^ r ^ =.u.s.u.>.-.o.Z r M 4 Z k A -.v c k w 7.I &.7.;.( ' ;.1.",
"$ V o.E { =.8 s I ` 6 ^ $._ ^ y ^ E ^ > ) p.;.] t.e.n ' $.U c Z ^ F ^ ) v h q - 8.^.S.^.c.p.7.:.^ ^ C C ;.1.>._ 2.-.o.Z r N k N k N } v v j B ] ( q.z.$.$.0.8.#.",
": / / _ _ ] B s d ( 8 C ;.=.( C c M E 1 ^ e.h.e.f.:.E Y ;.! c / / o.( ) ^ v t ; ;.P.P.c.>.h.t.8.:.^ M d >.-.s.>.u.=.-.^ y M i Z Z F / t S l C ( { j.J.;.' :.;.%.",
"% _ =._ _ _ s < ] ] 6 ^ ] =.E ^ ! E F q T u.p.g.g.p.&.E #.b F z F / C ( ^ q u = :.J.P.D.c.g.u.z.:.^ i _ >.=.c.2.s.=.:.Z p M k S l S / q ) Z U $.{ m.C.( E 8.&.r.",
"@ _ $.=._ Y p p ^ ' d ] 7.7.) U ) N l , ^ g.S.z.8.:.p._ =.N E j ...._ _ _ 4 + 3 q.J.D.c.D.q.c.p.8._ d ] u.>.:.>.G.Z.%./ s F h F Z S N q ) S I _ ] c.S.p.8.$.8.a.",
"  d =.1.=.{ ( B ( _ B ] ] ) ) ] ^ T W 4 ( i.j.j.8.t.p.7.;.( E W / _ ) ] _ u , * :.P.8.c.z.z.c.g.e./ ^ p.z.>.z.=.>.a.e./ a F k S / / / S / z I 5.6.n.x.$.:.t.t.:.",
"o B :.e.>.;._ i T ^ d ' y _ U ^ u a G E ' p.c.q.a.$.t.:.7.E M q ..$.o.) ) r 1 1 6.j.q.z.h.J.S.j.;.^ ^ ;.F.>.s.a.s.;.1.^ B ^ S $.1.~ G W S l I #.;.h.j.$.e.e.:.r.",
"% E :.u.=.=._ B B ( d ( p ] ) ^ B _ k v ^ >.a.g.8._ ] 8.=.( ) l G ) $.o.) v t , [ z.p.z.c.c.c.p.p./ E C.a.i.A.j.u.a.Z.=.s B e.e.r.~ E R E m I &.q.Y.B.w.t.t.e.e.",
"@ T =.e.>.>.=.^ Y ( M ( s [ C C T V G S ^ 8.J.j.a.=.=.;.f./ E m O.a ^ ( ) w x o { p.h.h.J.g.z.g.;.E Y I.C.p.C.D.u.s.Z.C Y ( r.:.w.g R ..S v I &.f.x.z.7.<.8.$.:.",
"$ E ^ :.o.=.7.^ ( ( d ` s Y c B s x 5 v ` =.j.t.8.-.$.:.$.o.N j O.B ] ^ E C 9 > ^ t.c.c.z.h.q.p.8.Y Y j.I.B.B.a.s.u.a.^ B >.u.r.! W #.E G v I V q.C.e.e.z.t.) a.",
"8 T =.] T =.q.) ] ^ d ^ M B M C u V t n _ _ j.>.u.) } u.-.] M Z E ( ) ] E v e + ` { h.h.' g.h.g.S.o.$.j.Z.p.a.t.h.>.u.( d :.q./ ! v f ~ ! S b R 0.q.j.&.8.j.$.t.",
"1 p =.] ( ;.D.g.u.;.M ^ s Y c B w B * k ^ _ u.;.u.E O._ =.^ c 5 _ B ^ ^ b M q 1 ( F.p.t.8.z.h.p.F._ t.Z.C.a.L.r.e.j.8.V I 6.u.:.' o.v W j q w V { g.t.$.] ] C 7.",
"8 < Y B G 1.F.t.;.6.c / { ^ i y w m , N C >.p._ %.O.} Y $.B ^ m $._ C _ ..h 9 0 >.K.n.c.8.u.q.p.j._ T p.e.j.f.a.7.%.a 8 d p.C.-.~ S f E :.F I E -.J.B.&.$./ _ >.",
": / E =.=.u.P.C.>.` s ^ p ^ r i x j h / ^ -.1.=.D $./ =./ r Y G / N C ^ E m x 7 ;.S.z.e.A j.z.q.p._ 9 _ @.J.:._ w.W i u I p.8.$.A W } W W S s 8.%.f.t.' 8.^ ( ;.",
"$ _ ) 8.s.B.D.D.8.;.C ( i B r ^ T d F M V =.a.o.p.-.o.E _ 4 E _ $.=./ / >.C F E { F.R.j.=.8.p.{ j.=.v Z.I.W.t.O.a.:.;.B B >.:.O.) E O.} W ) B t.f.6.' :.;.=.$.u.",
"8 o./ { D.z.Z.u.( ` d _ F B r / ^ ^ / M M _ Z.=.>.O.-./ ^ r ^ j.=.=._ / 2.=.^ ^ 0.!.z.a.p.7.e.;.g.-.k j.^.^.>.-.u.u.;.V d =.>.-.:.S <.W F / s p.p.8.q.$.;.=.( Z.",
"y _ / _ D.J.p.] ^ =.i { ^ M r i ^ M i N ^ 2.s.-.-.^ O._ =.r ^ 1.>._ / ^ -._ / V q.C.R.a.g.;.D.1.j.:.F D.I.^./.G.Z.8.1.M s ^ p.o.$.F %.o.=.U p t.h.8.:.>.;.;.8.;.",
"w ^ -.>.L.I.u.o._ C d _ _ S g M ^ i i ^ i O.>.2.2.^ -.O.>.i V 1.$./ ..^ _ ^ _ V 6.!.D.g.a.j.I.I.W.1.-.I.F.G.Z.a.F.i.a.r w C / / ) %.a.| O._ s h.z.h.$.C _ ;.>./ ",
"u / ] p.j.S.1.Z _ ` V C d ^ l N ^ C ^ ^ N / =.=.-._ } ^ O.M M u.^ _ z / ^ _ >./ 7.B.M.`.K.>.i.C./.p.$.D./._.e.,.s.j.I.^ d M } k ) G N G =._ V p.z.D.;.O.^ _ ;.>.",
"i / ;.i.g.j.p.] B ^ ( ^ Y E ^ ( ^ M _ ^ / -.O.s.^ O.o.O.O.N N 2.-._ / / O.o.O./ &.I.!.S.!.e.Y.Y.R.s.:.E._.I.Z.Z.a.Z.^._ U _ =.V $.) =.=.=.^ B j.^.F.D.>._ >.t.>.",
"b =./ S.u.S.j.g.;._ ^ :.>.>.' o.^ >.^ >.^ _ =.2.O._ O.-.=._ M a.V.2.-.} O._ O.^ 7.I.!.K.J.g.t.B.S.g.t.j././.Z.^.s.Z.I._ Y _ ^ ^ e.O.$.r.B.] U g.S.D.a.=.$._ u.>.",
"$.=.=.>.8.S.j.8.p.:._ 1.r.1.a.-./ =.=.>.M =.i.>./ _ =.>.o.F i s.G.2.-.<./ >.O.^ t.W.D.L.C.Y.K.K.z.p.q./.(.^.1.s.A./.D.C Y / >.O.:.<.:.s.Z.-.T C.c.P.j.j.>.g.a.2.",
"U D.a.E.j.I.K.g.8.] _ i.a.1.i.-.-.s.z.>.^ _ 2.2.^ =.O.^ :.w./ j.Z.Z.<.2.2.2./ M k.Y.Y.~.W.S.C.J.c.] p.I.^.G.D.B.Z.A.I.( B j.D.o.:.-./ 1.N.u.;.S.^.F.D.J.F.z.h.>.",
"T j.u.E.p.I.j.p.8.:.] 1.i.1.i. .-.s.G.2._ >.>./ =.S =.e.&.M.%.w.i.2.a.2.C.Z.%.S b.[.C.!.!.L.W.D.c.p.q././.I.F.s.F.I.^./ ( F.D./ e.%.-.e.N.t.;.R.V.g.K.L.L.j.>.$.",
"t.Z.B.D.I.I.J.a.] ;.;.u.s.s.N.i.,.G.Q.s.=.>.u.2.=.O./ _ :.a.1.a.s.N.a.s.a.M.w.S m.E.W.|.~.L.E.J.p.;.h./.F./.F.Z.Z.Z.G.M ;.I.F.o.-.<.! <.r.a.0.V.K.D.z.j.J.D.L.-.",
":.I.I.D.I.,.a.f.7.{ :.s.2.u.1.1.2.A.A.z.>._ z.>.-.O.<.a.B.a.1.a.a.B.N.2.C.I.B.W b..XW..X~.~.Y.f.^.;.h.'.^._.z.D.s.F.D.v :.L.Z._ <.! W e.<.>.0.D.S.D.x.a.L.j.D./ ",
"t.I.D.s.F.2.N.j.p.( h.j.i.a.-.1.Z.G.I.z.=.=.2.z.e.<.t.B.B.t.i.a.i.s.2.Z.D.a.r.W b.@X.X.X~.B.W.t.z.6.c./.F./.G.B.G.I.Z./ 7.Z.D.$.r.C.%.>.<.O.&.D.C.L.W.j.j.z.L.O.",
"e.I.L.j.D.z.L.g.{ ;.p.j.V.i.:.i.s.2.s.s./ / j.a.:.%.w.i.Z.a.a.H.V.2.N.^.G.G.1.E m.@XoX.X`.C.K.B.K.6.b.]./.z.1.V.A./.Z.^ q.p.a.$.<.r.W $. .F 8.I.Y.J.J.D.a.t.I.%.",
">.^.F.a.a.p.W.;.t.;.f.^.G.A./.G.(.G./.>.o./ j.a.$.w.j.t.C.u.i.A.s.2.D.Z.F.D.a.) U.+X.XoXR.J.k.f.R.] x.I.^.W.F.^.G./.z.o.8.D.F./ $.:.) ) -./ 7.E.j.t.R.J.C.:.W.1.",
"e.E.Z.a.D.p.D.D.8.;.p.(./.H./.B./.F.G.:.] >.=.a.#.$.U O.A.i.u.H.Z.N.F.I.P.B.e.' U.+X+XXXW.J.g.x.K.6.c./.].F.D.G.D.D.Z./ 8.I.g.j.r.>.E 2.2./ &.E.a.g.c.P.D.p.I.:.",
"p.I.I.F.I.t.R.6.>.` p.(./.F.Z.G.G.G./.a.>.:.p.>.l t.$.=.F.i.a.N.F.i.F.F.D.i.r./ U.@X.XXXK.C.S.K.).8.x.^.^.P.Z.G.^.G.j.$.7.!.p.i.E _ q ,.2.} 7.K.C.g.t.a.D.C.D.<.",
";.I.j.Z.I.p.I.D.p.] p.Q.M.G.H.H.F.Q.(.a.%.-.g.$.S %.;.R B.e.u.F.D.B.F.F.L.M.t.! b.+X@X~.C.f.C.k.z.;.c.'././.I.I.I.D.Z./ p.^.a.G.r.w.w.r.B.<.6.J.x.D.J.L.B.t.C.>.",
"7.I.C.j.g.D./.^.p.;.e.F.M.F.G.A.I.Q.!.B.$.w.t.$.S $.$.R i.r.=.A.B.N.D.V.!.t.r.! d.@X.X.XY.B.Y.! K.q.g.`./.I.D.I.G.Q.z.=.d./.a.D.:.! v R a.<.8.L.D.a.8.g.V.D.J.<.",
"7.I.F.I.j.D.I.Z.c.;.e.^.!.B.A.F.I.!.!.B.) r.8.S f w.%.R -.u.-.M.F.N.F.Q.B.F.<.~ d.oXoX~.Y.C.C.y.J.6.j._./.c.^.Z.s.a.D.=.p.^.s.Z.w.! #.e.V.O.:.E.D.j.d.K.D.C.I.:.",
";.I.z.S.I.Z.D.+.j.:.7.I.I.F.F.H.(.L.Q.g.$.e.a.W 2 ..! ..O.i.=.N.F.N.B.N.L.B.M.D l..X+XXX~.C.d.g.x.;.z././.S.D.D.D.D.F.-.8.s.;.Z.%.-.#.%.r.-.5.I.C.L.C.x.g.g.I.:.",
";.W.I.I.Z.g.D.M.j.:.t.H.!.!.V.F.D.Q.Q.B.E t.%.l & Z Z S -.w.%.V.D.r.F.V.D.N.N.R m.XX.XY. XD.C.5.k.8.x.^.I.P.D.Z.a.s.D.>.0.D.u.Z.%.h l ! -.O.;.L.K.C.g.C.C.C.I.e.",
"6.Q././.p.p.D.s.j.$.f.F./.Q.F.G.!.B.L.r.v #.~ 9 f ! o.U ! w.:.Q.V.t.H.N.C.N.r.R b.XX~..X Xk.S.S.x.q.x.|.I.S.j.p.D.Z.F.-.;.S.>.s.o.o.#.! 1.} 8.D.K.C.E.C.D.J.g.-.",
"6.I.D.I.Z.D.F.u.8.8.g.F.B.Q.V.H.Q.V.Q.N.n ! ..h m S E S %.:.:.A.L.N.V.F.D.V.V.f S..XXX~.XXf.Y.b.x.p.x..X(.F.D.D.D.i.s.=.;.Z.1.a./ #.' -.%.F 0.D.Q.j.g.f.t.g.C.p.",
"{ F.D.D.j.B.^.s.:.:.g.H./.Q.V.V.!.N.D.t.e r.#.n R :.&.E %.%.<.A.F.r.N.N.V.N.i.j b.oXXXY..XD.D.D.J.f.K.[.I.D.g.D.Z.s.Z.o.{ D.:.p.O.o./ V O.G 6.L.C.J.S.C.F.J.C.t.",
"` F.F.I.p.D./.u.g.e.e.G.]./.M.A.L.r.*.r.x ! :.G h 8.E C :.:.-.V.F.r.M.N.N.V.w.v d..XoXz.|.T.S.d.K.f.J.|.K.B.a.C.D.s.s.) ;.s._ u...%.w.-.$.} 8.j.C.J.J.z.C.J.C.<.",
"` P.D.F.p.F.D.u.D.e.p.F._.Q.2.A.Q.L.B.&.v -.:.! R w._ $.:.$.r.V.B.r.N.B.D.N.r.m b.XX|.g.|.Y.U.t.8.j.D.|.!.a.C.D.j.Z.2./ ;.p.:.%.Z %.( :.) ..6.p.D.j.D.g.C.p.g.,.",
"{ ^.F.D.z.C.j.p.z.:.6.F.]./.M.A.I.M.f.-.7 $.$.) N 8.E ! :.$.%.V.a.r.M.N.<.M.r.S f. X`.E. XJ.S.J.x.p.x.|.].z.j.D.I.Z.p.^ ;.r.o.:.....! R O.$.6.a.C.j.L.C.L.P.L.:.",
";.^.R.g.F.N.:.Z.C.-.q.I.(.G.+.A.F.B.e.:.: ! e.$.N _ O.] e.O.:.B.a.@.M.M.i.2.1.m m..X.X|.|.J.f.S.j.g.J.|.!.j.D.L.D.F.a._ 7.a.<.:.~ G n #.1.o.$.j.K.J.K.j.j.C.x.:.",
";.^.s.D.D.s.j.s.a.:.;.F./.F. .s.L.G.t.7.9 ! w.) ! 8.! E e.%.o.r.r.r.M.r.M.r.r.W b.oXoX`.|.K.f.J.Y.h.f.'./.B.z.K.I.L.j.o.7.a.o.W Z %.! ..O...( a.D.t.t.w.f.C.C.r.",
">.^.I.F.i.a.i.s.z.;.{ D.G.G.i.2.B.B.g.$.< e.:.$.S -.#.-.t...%.e.-.r.M.r.r.,.M.D d.XXXX`..XY.g.R.K.z.z._.E.B.z.p.I.a.D.} ;.t.} t.G g W #.$.$.#.N.C.C.B.w.j.E.E.N.",
":./.u.D.i.e.u.a.j.1.;.j.A.F.2.O.1.a.a.:.a :.:.( E $.t.7.B.$.-.r.<.<.2.<.r.2.i.m l.XXXX)..X`.n.n.j.f.l.'.D.P.a.f.g.I.B.W &.j._ ..%.W F E ..$.&.C.B.K.:.C.J.R.B.1.",
">.E.Z.F.i.s.j.Z.a._ =.s.N.Z.i. .a.r.8.{ v t.p.E #.$.E #.t.$.:.r.%.,.r.r.M.M.r.v y..XoXXX.XW.K.K.L.j.x.K.I.j.P.P.P.Z.C.G 7.j.$.$.e g ! v %.O.%.B.t.w.a.g.K.K.B.,.",
";.D.j.F.s.a.B.a.t.8.:.i.N.V.,.O.r.1.r.] x e.a.R K @.t.w.a.o.:.M.1.%.<.a.r.1.r.v q.XX+XoX[.p.Y.C.Y.D.b.[.C.a.g.D.j.D.a.O.6.i.) r...v :.E %...! r.e.L.e.t.L.K.D.<.",
":.Z.a.F.j.:.a.u.p.>.:.B.A.Z.1.,.i.1.a.) e t.t...O.:.&.j.a.$.-.a.%.w.2.r.r.1.1.q 5.|.XXOX[.p.x.x.J.z.C.W.G.C.8.J.C.D.C.} q.<.W $.%.n :.Z %.o...B.g.K.:.g.L.E.D.X.",
";.D.B.s.a.t.s.s.u.q.;.Z.A.V.r.-.r.$.8.E V C.N.R E :._ <.a.) -.r.1.<.M.r.<.r.<.k [ .XOX|.|.t.`.f.J.j.x.T.I.g.t.J.j.j.a. .6.a.:.e.l > o.m <.) ) r.N.J.$.w.r.T.B.1.",
":.P.C.j.a.e.e.s.e.=.8.A.A.u.o.>.r.1.t.E n g.a.o.#.e.! t.p.E =.a.r.w.r.w.r.w.X.v 9..XoX.X`.J.Y.x.R.z.x.).!.B.e.D.P.F.j.W ;.p.F :.-.x %.W ) v ) t.t.j.t.C.C.Y.C.e.",
">.I.C.p.C.B.i.Z.:.8.p.C.a.t.<.:.a.e.w.e ` *. .%.E E ) a.:./ $.a.r.<.M.M.r.e.%.S &.|.oXoX.X~.z.J.K.p.b.E.!.D.t.L.L.C.C.o.&.w.#.%.! h W / -.F ) M.t.N.t.N.C.P.a.1.",
"$.C.C.j.s.a.:.a.j.e.' e.a.M.t.<.a.<.>.V u e.%.#.#.:.o.u.1./ =.B.<.1.M.r.<.r.%.R '  XoX.XOX{.R.W._.p.x.`.E.B.C.C.e.C.B.W 7.C.R %.W W %.%.%.F Z a.g.C.t.f.t.S.N.1.",
"Q D.a.e.a.a.a.a.s.:.e.u.2.a.<.<.C.W w.N : r.e.$...e.#.t.e._ ] N.e.-.M.r.2.<.O.N 9..X+XoXOX[.`.T.`.j.x.~.I.x.C.a.B.t.B.o.' a.S %.%.W W O.) 3 ! a.e.g.g.C.t.I.r.%.",
"{ D.B.j.a.C.r.1.u.p.>.1.M.a.%.<.t.<.1.q = ' :.$.V :.:.t.e.) _ a.<.1.r.r.r.r.<.c 3.XX.XoXXX[.W.W.).p.x._.I.D.D.j.B.g.a.W &.t.) N.E W / / W h ! :.e.e.w.B.J.C.g.<.",
"( P.B.j.j.p.a.r.e.t.$.p.i.r.<.<.t.%.e.0 + %.:.N 1.w.:.:.w./ _ i.X.,.i.2.2.<.-.N 9. X.X.XoX.X[.Y.).g.d.E.F.p./.j.e.D.a./ ' e.o.:.W %.W o./ v n $...g.a.D.j.&.f.r.",
"] I.s.i.j.a.r.a.<.>.:.7.i.a.$.%.r.t.<.3 # ! :.! ) w.p.w.t.E _ 1.J O.1.2.e.r.%.! T ~.{.|.oX`..XY.W.p.x.R.D.p.K.D.D.D.g.-.&.t.! <.} ~ %.E E v V ' n g.C.I.j.g.C.2.",
"' Z.B.e.p.e.>.<.r.$.6.p.r.r.E o.w.-.-.f : v ..$.) -.$.:.-.E E :.o./ <.<.,.2.X.E 9.`. X[.XX.X|.!.P.p.h.E.j.&.6.L.Z.j.B.<.{ 8.W <.} G F C x g x ) #.8.C.L.t.e.B.M.",
"( j.B.a.p.:.$.e.i.:.' t.a.r.-.-.e.w.-.g # R :.$.$.1._ L 1.) E ..o.W O.-.-.%.O.S 9.~. X`.oXXX[.~.K.u.z.P.D.8.J.z.D.j.j.1.Q e.~ %.G W R Z a q b :.8.<.N.D.t.x.j.<.",
"( a.a.z.a.a.:.B.1.=.] a.1.i.O...1.%.&.n O Q &.#.E ..%.%.-.) N O.$.) O.O.%.<...R 3.`..X`..X.X`.~.T.p.f.E.K.p.J.f.j.>.s.1.' s.F <.F o.} v c q I ;.8.:.t.I.t.C.C.<.",
"T a.a.a.<.:.>.1.<.) U a.%.,.O.O.r.%.:.v O R :...E $.....e.) u ) O.} <.X.X.O.D S 9.`. X{.Y.~.~.J.^.c.z.S.D.;.J.a.p.s.s.=.{ a.1.-.W $.<.S c l R R :.<.N.C.j.B.j.<.",
"_ a.1.i.r.t.e.r.-.O.' r.1.1.O.-.e.#.#.f w Z e.%.o.) o.:.:.) v / -...-.O.X.@.Z Z y.[. X{.g.t.Y.g.).c.p.P.J.g.D.K.F.i.B._ T r.%.-.Z ' %.S R v U I t.w.N.V.g.g.t.1.",
"E B.e.e.1.( %.r.1.=.^ 1.i.,.O.-.<.$.%.> w S #.-.S ..V :.-.F B F E M -.}  .,.W S y.`.[.].D.S.Y.k.R.z.f.P.J.p.J.g.i.j.1.o.E :.) O.W ,.X.S k m V -.t.w.M.C.e.t.q.<."
};
